<svg width="46" height="49" viewBox="0 0 46 49" fill="none" xmlns="http://www.w3.org/2000/svg">
<path d="M34.1554 30.826C35.0544 30.8261 35.8182 31.1608 36.4718 31.8572C37.1263 32.5546 37.4514 33.3827 37.4503 34.3689V40.4344C37.4503 40.8905 37.3094 41.246 37.0392 41.534C36.7705 41.8202 36.4528 41.9578 36.0538 41.9568C35.6534 41.9558 35.3347 41.8168 35.0656 41.531C34.7959 41.2446 34.6554 40.8905 34.6554 40.4344V33.8699H10.8849V40.4344C10.8849 40.8906 10.7441 41.2459 10.4738 41.534C10.2051 41.8202 9.88739 41.9578 9.4884 41.9568C9.08674 41.9557 8.76825 41.8177 8.50012 41.533C8.23043 41.2451 8.08997 40.8901 8.08997 40.4344V34.3699C8.08997 33.3818 8.41608 32.5532 9.07043 31.8572C9.68344 31.2053 10.3925 30.8701 11.2189 30.8299L11.3859 30.826H34.1554ZM37.0021 22.739C37.6486 22.7379 38.1899 22.9728 38.6534 23.4666C39.1181 23.9617 39.3499 24.5533 39.3478 25.2703C39.3456 25.9896 39.1128 26.5837 38.6515 27.0808C38.1945 27.5732 37.6554 27.8077 37.004 27.8045C36.3484 27.8011 35.8068 27.5648 35.3507 27.0789C34.8874 26.5853 34.6554 25.9922 34.6554 25.2713C34.6555 24.5505 34.8879 23.9595 35.3507 23.4676C35.8131 22.9761 36.3541 22.7402 37.0021 22.739ZM8.54016 22.739C9.18461 22.7368 9.72641 22.971 10.1915 23.4666C10.6576 23.9632 10.8881 24.5546 10.8849 25.2693C10.8816 25.9877 10.6495 26.5828 10.1886 27.0818C9.73322 27.5748 9.19441 27.8089 8.54211 27.8045H8.53918C7.89003 27.8045 7.34843 27.5697 6.88782 27.0789C6.42611 26.5869 6.19365 25.9942 6.1925 25.2713C6.19142 24.5495 6.42376 23.9587 6.88684 23.4685C7.35081 22.9776 7.89308 22.7413 8.54016 22.739ZM28.462 6.56522C29.3612 6.56522 30.1257 6.89994 30.7794 7.59647C31.4338 8.29386 31.7591 9.12196 31.7579 10.1082V27.8045H13.7823V10.1092C13.7823 9.12109 14.1085 8.29247 14.7628 7.59647C15.3758 6.9445 16.0849 6.60939 16.9113 6.56912L17.0782 6.56522H28.462Z" fill="#454545" stroke="#B6B6B6"/>
</svg>
